<?xml version="1.0" encoding="UTF-8"?>
<!DOCTYPE svg PUBLIC "-//W3C//DTD SVG 1.1//EN" "http://www.w3.org/Graphics/SVG/1.1/DTD/svg11.dtd">
<!-- Creator: CorelDRAW 2021 (64-Bit) -->
<svg xmlns="http://www.w3.org/2000/svg" xml:space="preserve" width="352.031mm" height="144.395mm" version="1.1" style="shape-rendering:geometricPrecision; text-rendering:geometricPrecision; image-rendering:optimizeQuality; fill-rule:evenodd; clip-rule:evenodd"
viewBox="0 0 35198.92 14437.78"
 xmlns:xlink="http://www.w3.org/1999/xlink"
 xmlns:xodm="http://www.corel.com/coreldraw/odm/2003">
 <defs>
  <style type="text/css">
   <![CDATA[
    .fil2 {fill:#008DCE;fill-rule:nonzero}
    .fil0 {fill:url(#id0);fill-rule:nonzero}
    .fil1 {fill:url(#id1);fill-rule:nonzero}
   ]]>
  </style>
  <linearGradient id="id0" gradientUnits="userSpaceOnUse" x1="20761.16" y1="7218.84" x2="35198.92" y2="7218.84">
   <stop offset="0" style="stop-opacity:1; stop-color:#E4E2DF"/>
   <stop offset="0.0313725" style="stop-opacity:1; stop-color:#DDD8D6"/>
   <stop offset="0.258824" style="stop-opacity:1; stop-color:#8A878C"/>
   <stop offset="0.521569" style="stop-opacity:1; stop-color:#F2F4F4"/>
   <stop offset="0.560784" style="stop-opacity:1; stop-color:#F2F4F4"/>
   <stop offset="0.870588" style="stop-opacity:1; stop-color:#807B80"/>
   <stop offset="0.988235" style="stop-opacity:1; stop-color:#D1D3D4"/>
   <stop offset="1" style="stop-opacity:1; stop-color:#A7A8AC"/>
  </linearGradient>
  <linearGradient id="id1" gradientUnits="userSpaceOnUse" xlink:href="#id0" x1="19515.24" y1="-1473.62" x2="19515.24" y2="15605.01">
  </linearGradient>
 </defs>
 <g id="Layer_x0020_1">
  <metadata id="CorelCorpID_0Corel-Layer"/>
  <g id="_1803000879920">
   <g>
    <path class="fil0" d="M27980.02 0c-3986.88,0 -7218.9,3232.02 -7218.9,7218.9 0,3986.87 3232.02,7218.88 7218.9,7218.88 3986.9,0 7218.9,-3232.01 7218.9,-7218.88 0,-3986.88 -3232,-7218.9 -7218.9,-7218.9zm0 14095.72l0 0 0 -4672.05c-1217.67,0 -2204.77,-987.12 -2204.77,-2204.77 0,-1217.66 987.1,-2204.79 2204.77,-2204.79l0 -4672.04c3797.98,0 6876.83,3078.87 6876.83,6876.83 0,3797.95 -3078.85,6876.82 -6876.83,6876.82z"/>
    <path class="fil1" d="M19800.12 7193.51c0,-2150.08 834.24,-4108.65 2195.5,-5570.16l0 -1623.35 -4960.77 0 0 14437.78 4960.77 0 0 -1674.14c-1361.26,-1461.52 -2195.5,-3420.08 -2195.5,-5570.12z"/>
   </g>
   <path class="fil2" d="M-0 8889.6c0,0 0,-1186.14 0,-3557.63 0,0 219.89,0 660.48,0 0,0 0,512.02 0,1535.25 0,0 367.56,-511.22 1102.68,-1535.25 0,0 264.84,0 794.51,0 0,0 -445.41,582.64 -1337.82,1747.11 0,0 446.21,603.51 1337.82,1810.52 0,0 -264.83,0 -794.51,0 0,0 -367.56,-521.65 -1102.68,-1565.75 0,0 0,521.65 0,1565.75 0,0 -219.89,0 -660.48,0zm5238.93 -2668.43c0,0 0,889.21 0,2668.43 0,0 -198.22,0 -593.07,0 0,0 0,-85.07 0,-256.01 -121.99,117.18 -239.95,199.84 -353.92,247.98 -113.16,47.35 -250.39,71.43 -410.09,71.43 -179.77,0 -341.88,-36.12 -483.92,-109.15 -142.85,-73.03 -258.42,-176.56 -345.9,-311.38 -69.01,-108.34 -117.97,-227.92 -146.06,-357.93 -28.09,-130.01 -41.73,-304.16 -41.73,-521.65l0 -1431.72 641.22 0 0 1304.92c0,184.59 10.43,329.04 30.5,433.37 20.87,104.34 55.37,186.19 103.53,245.58 93.09,106.74 216.68,160.5 371.57,160.5 111.56,0 210.27,-22.47 297.74,-67.41 86.67,-44.13 153.28,-107.54 198.23,-189.4 34.51,-59.38 58.58,-136.42 72.22,-231.12 12.85,-94.7 20.07,-227.92 20.07,-398.86l0 -1257.57 639.61 0zm-2012.75 -364.35l0 -642.03c0,0 212.67,0 639.62,0 0,0 0,213.47 0,642.03 0,0 -213.47,0 -639.62,0zm1011.19 0c0,0 0,-214.27 0,-642.03 0,0 213.47,0 641.22,0 0,0 0,213.47 0,642.03 0,0 -213.46,0 -641.22,0zm1520.8 3032.77c0,0 0,-889.21 0,-2668.43 0,0 195.02,0 585.85,0 0,0 0,86.67 0,260.82 84.27,-123.59 167.73,-208.66 248.79,-253.6 81.86,-45.74 191.81,-68.21 329.04,-68.21l49.75 0c0,0 0,204.65 0,615.55 -382.81,9.63 -573.81,219.89 -573.81,629.99 0,0 0,495.16 0,1483.89 0,0 -213.47,0 -639.62,0zm2414.83 0c0,0 -357.93,-889.21 -1073.78,-2668.43 0,0 237.55,0 711.85,0 0,0 205.45,589.06 616.35,1767.98 0,0 202.24,-589.06 606.71,-1767.98 0,0 240.76,0 723.88,0 0,0 -357.93,889.21 -1074.58,2668.43 0,0 -170.14,0 -510.42,0zm4330.48 -1048.92c0,0 -688.58,0 -2066.53,0 39.33,161.31 125.2,289.72 256.81,383.61 131.61,93.9 292.13,141.24 481.52,141.24 131.61,0 241.56,-20.06 329.04,-60.18 88.27,-40.13 173.34,-108.35 256.81,-205.46l698.2 0c-37.72,120.39 -108.34,243.97 -211.87,370.78 -276.07,321.81 -628.39,482.32 -1057.74,482.32 -200.64,0 -390.83,-36.12 -569,-108.35 -178.96,-71.42 -332.25,-169.33 -459.85,-292.12 -127.6,-123.6 -229.53,-270.46 -304.16,-442.2 -75.44,-171.74 -113.16,-353.12 -113.16,-544.12 0,-257.62 62.59,-493.56 186.99,-709.45 124.4,-215.07 294.54,-385.21 510.41,-509.61 215.08,-125.2 451.83,-186.99 708.64,-186.99 261.63,0 497.57,60.99 707.84,184.59 210.27,122.79 373.99,293.73 492.76,512.01 117.97,219.09 177.36,464.67 177.36,737.53 0,87.47 -8.03,170.14 -24.08,246.37zm-2084.98 -564.17l1479.07 0c-40.93,-170.94 -125.2,-301.75 -251.99,-392.44 -126.81,-90.69 -288.92,-136.43 -486.33,-136.43 -191.81,0 -349.91,44.94 -476.71,134.83 -126,90.68 -214.27,221.49 -264.03,394.04zm2503.9 1613.09c0,0 0,-889.21 0,-2668.43 0,0 195.02,0 585.85,0 0,0 0,86.67 0,260.82 84.27,-123.59 167.73,-208.66 248.79,-253.6 81.86,-45.74 191.81,-68.21 329.04,-68.21l49.75 0c0,0 0,204.65 0,615.55 -382.81,9.63 -573.81,219.89 -573.81,629.99 0,0 0,495.16 0,1483.89 0,0 -213.47,0 -639.62,0zm1399.63 -846.67c0,0 214.27,0 644.43,0 31.3,113.16 74.63,195.02 131.61,245.57 56.17,51.36 131.61,77.04 225.51,77.04 84.27,0 154.08,-24.88 207.86,-74.63 54.57,-48.95 81.06,-111.56 81.06,-186.99 0,-87.48 -40.94,-156.5 -121.99,-206.26 -34.52,-20.87 -68.22,-37.72 -101.13,-52.16 -32.9,-13.64 -109.95,-41.74 -230.32,-81.86 -266.44,-89.88 -456.64,-195.02 -570.6,-315.39 -113.16,-120.38 -170.14,-279.29 -170.14,-475.1 0,-228.72 85.07,-421.33 255.21,-577.82 170.14,-157.29 380.41,-235.14 630.8,-235.14 138.03,0 268.85,27.29 391.63,81.86 123.59,55.37 227.11,131.61 311.38,230.32 58.58,69.02 100.32,140.44 126,214.28 25.69,73.83 40.94,164.51 45.74,272.86l-625.18 0c-28.09,-141.24 -111.55,-211.88 -249.58,-211.88 -69.02,0 -126.81,21.68 -174.96,65.01 -47.34,42.53 -71.42,96.3 -71.42,160.5 0,81.86 41.74,141.25 124.4,178.97 45.74,18.46 154.88,55.37 329.03,110.75 269.66,82.66 460.66,182.98 573.01,300.95 111.56,117.17 167.73,276.87 167.73,479.11 0,256.01 -92.29,471.08 -277.68,646.84 -184.58,175.75 -410.09,263.23 -676.53,263.23 -164.52,0 -319.41,-34.52 -464.68,-104.33 -145.25,-69.82 -260.02,-163.72 -344.28,-280.89 -50.56,-72.23 -87.48,-146.86 -113.16,-223.91 -24.89,-76.24 -42.53,-176.56 -53.77,-300.94zm-14322.02 5329.63c0,0 0,-1186.14 0,-3557.63 0,0 293.73,0 881.18,0 243.17,0 434.17,13.64 573.01,40.13 138.83,26.49 261.63,73.83 367.56,141.24 144.46,93.9 256.01,219.89 333.86,378.8 78.64,158.1 117.97,337.07 117.97,536.1 0,211.07 -44.13,403.67 -133.21,575.41 -88.28,172.55 -209.47,301.75 -362.75,388.43 -97.11,52.96 -212.67,90.68 -345.89,112.35 -133.22,22.48 -319.41,32.91 -559.37,32.91l-211.87 0 0 1352.27 -660.48 0zm660.48 -1984.67l192.61 0c200.64,0 351.51,-15.25 451.83,-46.54 93.9,-26.49 167.73,-77.04 222.3,-150.88 53.76,-73.83 81.05,-161.3 81.05,-263.23 0,-113.16 -27.29,-209.46 -82.66,-288.91 -54.57,-80.26 -130,-133.22 -225.51,-159.71 -93.89,-22.47 -233.53,-32.91 -418.92,-32.91l-220.69 0 0 942.18zm2017.56 1984.67c0,0 0,-889.21 0,-2668.43 0,0 213.47,0 639.62,0 0,0 0,889.21 0,2668.43 0,0 -213.47,0 -639.62,0zm0 -2955.73c0,0 0,-200.64 0,-601.9 0,0 213.47,0 639.62,0 0,0 0,200.64 0,601.9 0,0 -213.47,0 -639.62,0zm1158.86 3846.55c0,0 0,-1186.15 0,-3559.24 0,0 195.02,0 585.85,0 0,0 0,105.14 0,314.59 211.07,-250.39 503.99,-375.59 876.37,-375.59 254.41,0 482.32,58.58 684.57,177.36 202.24,117.98 360.34,283.3 473.49,494.36 113.96,211.87 170.94,450.23 170.94,715.06 0,266.45 -57.78,507.2 -171.75,720.68 -114.76,214.27 -272.86,382 -475.9,503.19 -203.04,121.19 -431.76,182.18 -685.36,182.18 -162.91,0 -309.77,-24.88 -439.79,-75.44 -130.01,-49.75 -256.81,-129.2 -378.8,-237.55l0 1140.41 -639.62 0zm1365.92 -3032.78c-215.88,0 -397.25,77.85 -544.12,234.34 -146.06,155.69 -219.89,350.71 -219.89,584.25 0,227.11 75.43,417.31 225.5,569.79 150.88,152.48 336.27,229.52 557.76,229.52 214.27,0 394.84,-77.84 541.71,-231.93 146.87,-154.08 219.9,-345.09 219.9,-572.2 0,-235.14 -73.84,-429.36 -220.7,-583.44 -147.66,-153.28 -333.85,-230.33 -560.16,-230.33zm1820.14 2141.97c0,0 0,-889.21 0,-2668.43 0,0 213.47,0 639.62,0 0,0 0,889.21 0,2668.43 0,0 -213.47,0 -639.62,0zm0 -2955.73c0,0 0,-200.64 0,-601.9 0,0 213.47,0 639.62,0 0,0 0,200.64 0,601.9 0,0 -213.47,0 -639.62,0zm1158.86 2955.73c0,0 0,-889.21 0,-2668.43 0,0 196.63,0 590.67,0 0,0 0,85.07 0,256.01 117.17,-113.96 233.53,-195.82 347.5,-244.77 114.76,-48.15 249.58,-72.23 404.47,-72.23 388.42,0 672.52,136.43 851.49,408.49 64.2,103.53 109.15,220.69 134.82,350.71 25.69,130 38.53,310.57 38.53,540.91l0 1429.31 -638.81 0c0,0 0,-434.97 0,-1304.92 0,-345.09 -45.74,-571.41 -136.43,-679.75 -86.68,-105.13 -211.07,-157.3 -373.99,-157.3 -219.89,0 -378.8,85.88 -477.5,258.42 -39.33,60.99 -65.81,137.23 -80.25,227.92 -13.65,91.49 -20.87,223.9 -20.87,398.05l0 1257.57c0,0 -213.47,0 -639.62,0zm4938 -2668.43c0,0 203.85,0 610.73,0 0,0 0,720.68 0,2162.83 0,264.84 -22.47,484.73 -69.01,659.68 -46.55,174.96 -121.19,324.23 -224.71,447.82 -253.6,308.97 -616.35,463.07 -1088.23,463.07 -326.63,0 -609.13,-74.64 -849.09,-223.1 -239.95,-149.27 -414.1,-357.13 -521.64,-625.18l726.28 0c93.9,102.73 191.81,176.56 293.74,219.09 101.92,43.33 227.11,65 376.39,65 238.35,0 418.92,-70.62 543.32,-211.87 123.59,-140.44 191,-354.73 202.24,-642.03 -126,147.67 -256.01,253.6 -391.63,319.41 -135.63,65 -297.74,97.11 -485.53,97.11 -251.19,0 -475.9,-60.19 -675.73,-180.57 -199.84,-121.19 -355.53,-288.92 -467.07,-504.8 -111.56,-215.87 -166.93,-459.05 -166.93,-730.3 0,-394.84 124.4,-723.08 373.98,-984.7 248.79,-261.63 562.58,-392.44 940.57,-392.44 382.01,0 673.33,133.22 872.36,399.66l0 -338.67zm-808.95 526.46c-219.89,0 -396.45,74.64 -530.48,224.71 -134.01,149.27 -200.63,347.5 -200.63,593.88 0,242.36 67.41,436.58 203.04,581.83 135.63,144.45 317.8,217.48 546.53,217.48 231.93,0 417.32,-73.83 555.35,-219.89 138.03,-146.86 206.26,-343.48 206.26,-589.06 0,-241.56 -71.43,-436.58 -215.08,-585.84 -142.85,-148.47 -331.44,-223.11 -564.98,-223.11z"/>
  </g>
 </g>
</svg>
